<mxfile host="65bd71144e">
    <diagram name="Page-1" id="0_MhAKUIGFMiqFE8_MZg">
        <mxGraphModel dx="1023" dy="752" grid="1" gridSize="10" guides="1" tooltips="1" connect="1" arrows="1" fold="1" page="1" pageScale="1" pageWidth="827" pageHeight="1169" math="0" shadow="0">
            <root>
                <mxCell id="0"/>
                <mxCell id="1" parent="0"/>
                <mxCell id="2" value="" style="rounded=0;whiteSpace=wrap;html=1;fillColor=#bac8d3;strokeColor=#23445d;" parent="1" vertex="1">
                    <mxGeometry x="50" y="460" width="730" height="580" as="geometry"/>
                </mxCell>
                <mxCell id="ruzndFcOTA-KVxLO2v4l-79" value="" style="rounded=0;whiteSpace=wrap;html=1;fillColor=#dae8fc;strokeColor=#6c8ebf;" parent="1" vertex="1">
                    <mxGeometry x="64" y="500" width="700" height="460" as="geometry"/>
                </mxCell>
                <mxCell id="ruzndFcOTA-KVxLO2v4l-80" value="" style="image;aspect=fixed;html=1;points=[];align=center;fontSize=12;image=img/lib/azure2/networking/Virtual_Networks_Classic.svg;" parent="1" vertex="1">
                    <mxGeometry x="93.99999999999999" y="510" width="50.25" height="30" as="geometry"/>
                </mxCell>
                <mxCell id="ruzndFcOTA-KVxLO2v4l-81" value="" style="rounded=0;whiteSpace=wrap;html=1;fillColor=#f5f5f5;fontColor=#333333;strokeColor=#666666;" parent="1" vertex="1">
                    <mxGeometry x="434" y="560" width="310" height="370" as="geometry"/>
                </mxCell>
                <mxCell id="ruzndFcOTA-KVxLO2v4l-82" value="" style="rounded=0;whiteSpace=wrap;html=1;fillColor=#f5f5f5;fontColor=#333333;strokeColor=#666666;" parent="1" vertex="1">
                    <mxGeometry x="84" y="560" width="310" height="370" as="geometry"/>
                </mxCell>
                <mxCell id="ruzndFcOTA-KVxLO2v4l-83" value="&lt;span style=&quot;color: rgb(0, 0, 0);&quot;&gt;CloudProject-&lt;/span&gt;VNet" style="text;html=1;align=center;verticalAlign=middle;whiteSpace=wrap;rounded=0;" parent="1" vertex="1">
                    <mxGeometry x="152.4" y="510" width="107.6" height="30" as="geometry"/>
                </mxCell>
                <mxCell id="ruzndFcOTA-KVxLO2v4l-84" value="&lt;strong data-end=&quot;1193&quot; data-start=&quot;1183&quot;&gt;Zone 1&lt;/strong&gt;" style="text;html=1;align=center;verticalAlign=middle;whiteSpace=wrap;rounded=0;" parent="1" vertex="1">
                    <mxGeometry x="124" y="560" width="60" height="30" as="geometry"/>
                </mxCell>
                <mxCell id="ruzndFcOTA-KVxLO2v4l-85" value="&lt;strong data-end=&quot;1193&quot; data-start=&quot;1183&quot;&gt;Zone 2&lt;/strong&gt;" style="text;html=1;align=center;verticalAlign=middle;whiteSpace=wrap;rounded=0;" parent="1" vertex="1">
                    <mxGeometry x="644" y="560" width="60" height="30" as="geometry"/>
                </mxCell>
                <mxCell id="ruzndFcOTA-KVxLO2v4l-86" value="" style="rounded=0;whiteSpace=wrap;html=1;fillColor=#d5e8d4;strokeColor=#82b366;" parent="1" vertex="1">
                    <mxGeometry x="104" y="585" width="620" height="150" as="geometry"/>
                </mxCell>
                <mxCell id="ruzndFcOTA-KVxLO2v4l-87" value="" style="rounded=0;whiteSpace=wrap;html=1;fillColor=#fff2cc;strokeColor=#d6b656;" parent="1" vertex="1">
                    <mxGeometry x="124" y="590" width="590" height="140" as="geometry"/>
                </mxCell>
                <mxCell id="ruzndFcOTA-KVxLO2v4l-90" value="Public-Subnet" style="text;html=1;align=center;verticalAlign=middle;whiteSpace=wrap;rounded=0;" parent="1" vertex="1">
                    <mxGeometry x="124.5" y="581" width="80" height="30" as="geometry"/>
                </mxCell>
                <mxCell id="ruzndFcOTA-KVxLO2v4l-91" value="" style="image;aspect=fixed;html=1;points=[];align=center;fontSize=12;image=img/lib/azure2/networking/Subnet.svg;" parent="1" vertex="1">
                    <mxGeometry x="132.3" y="705" width="33.4" height="20" as="geometry"/>
                </mxCell>
                <mxCell id="ruzndFcOTA-KVxLO2v4l-93" value="" style="image;aspect=fixed;html=1;points=[];align=center;fontSize=12;image=img/lib/azure2/compute/Virtual_Machine.svg;" parent="1" vertex="1">
                    <mxGeometry x="184.5" y="620" width="69" height="64" as="geometry"/>
                </mxCell>
                <mxCell id="ruzndFcOTA-KVxLO2v4l-94" value="" style="image;aspect=fixed;html=1;points=[];align=center;fontSize=12;image=img/lib/azure2/compute/Virtual_Machine.svg;" parent="1" vertex="1">
                    <mxGeometry x="569" y="620" width="69" height="64" as="geometry"/>
                </mxCell>
                <mxCell id="ruzndFcOTA-KVxLO2v4l-95" value="&lt;font style=&quot;font-size: 9px;&quot;&gt;10.0.1.0/24&lt;/font&gt;" style="text;html=1;align=center;verticalAlign=middle;whiteSpace=wrap;rounded=0;" parent="1" vertex="1">
                    <mxGeometry x="132.3" y="590" width="60" height="30" as="geometry"/>
                </mxCell>
                <mxCell id="ruzndFcOTA-KVxLO2v4l-97" value="" style="rounded=0;whiteSpace=wrap;html=1;fillColor=#d5e8d4;strokeColor=#82b366;" parent="1" vertex="1">
                    <mxGeometry x="104" y="750" width="620" height="160" as="geometry"/>
                </mxCell>
                <mxCell id="ruzndFcOTA-KVxLO2v4l-98" value="" style="rounded=0;whiteSpace=wrap;html=1;fillColor=#fff2cc;strokeColor=#d6b656;" parent="1" vertex="1">
                    <mxGeometry x="120" y="760" width="590" height="140" as="geometry"/>
                </mxCell>
                <mxCell id="ruzndFcOTA-KVxLO2v4l-100" value="Private-Subnet" style="text;html=1;align=center;verticalAlign=middle;whiteSpace=wrap;rounded=0;" parent="1" vertex="1">
                    <mxGeometry x="132.3" y="760" width="87.7" height="30" as="geometry"/>
                </mxCell>
                <mxCell id="ruzndFcOTA-KVxLO2v4l-102" value="" style="image;aspect=fixed;html=1;points=[];align=center;fontSize=12;image=img/lib/azure2/networking/Subnet.svg;" parent="1" vertex="1">
                    <mxGeometry x="132.30000000000004" y="859" width="33.4" height="20" as="geometry"/>
                </mxCell>
                <mxCell id="ruzndFcOTA-KVxLO2v4l-106" value="10.0.3.0/24" style="text;html=1;align=center;verticalAlign=middle;whiteSpace=wrap;rounded=0;" parent="1" vertex="1">
                    <mxGeometry x="124.5" y="875" width="60" height="30" as="geometry"/>
                </mxCell>
                <mxCell id="ruzndFcOTA-KVxLO2v4l-118" value="Vm Scale-Set" style="text;html=1;align=center;verticalAlign=middle;whiteSpace=wrap;rounded=0;" parent="1" vertex="1">
                    <mxGeometry x="168.2" y="700" width="76" height="30" as="geometry"/>
                </mxCell>
                <mxCell id="ruzndFcOTA-KVxLO2v4l-119" value="Vm Scale-Set" style="text;html=1;align=center;verticalAlign=middle;whiteSpace=wrap;rounded=0;" parent="1" vertex="1">
                    <mxGeometry x="374" y="875" width="80" height="30" as="geometry"/>
                </mxCell>
                <mxCell id="ruzndFcOTA-KVxLO2v4l-120" value="" style="image;aspect=fixed;html=1;points=[];align=center;fontSize=12;image=img/lib/azure2/networking/Load_Balancers.svg;" parent="1" vertex="1">
                    <mxGeometry x="383.5" y="550" width="61" height="61" as="geometry"/>
                </mxCell>
                <mxCell id="ruzndFcOTA-KVxLO2v4l-121" style="edgeStyle=orthogonalEdgeStyle;rounded=0;orthogonalLoop=1;jettySize=auto;html=1;entryX=0.495;entryY=0.969;entryDx=0;entryDy=0;entryPerimeter=0;" parent="1" source="ruzndFcOTA-KVxLO2v4l-94" target="ruzndFcOTA-KVxLO2v4l-120" edge="1">
                    <mxGeometry relative="1" as="geometry">
                        <Array as="points">
                            <mxPoint x="440" y="652"/>
                            <mxPoint x="440" y="609"/>
                        </Array>
                    </mxGeometry>
                </mxCell>
                <mxCell id="ruzndFcOTA-KVxLO2v4l-122" style="edgeStyle=orthogonalEdgeStyle;rounded=0;orthogonalLoop=1;jettySize=auto;html=1;entryX=0.506;entryY=0.98;entryDx=0;entryDy=0;entryPerimeter=0;" parent="1" source="ruzndFcOTA-KVxLO2v4l-93" target="ruzndFcOTA-KVxLO2v4l-120" edge="1">
                    <mxGeometry relative="1" as="geometry">
                        <Array as="points">
                            <mxPoint x="390" y="660"/>
                            <mxPoint x="390" y="610"/>
                        </Array>
                    </mxGeometry>
                </mxCell>
                <mxCell id="ruzndFcOTA-KVxLO2v4l-126" value="" style="edgeStyle=orthogonalEdgeStyle;rounded=0;orthogonalLoop=1;jettySize=auto;html=1;entryX=0.55;entryY=0.95;entryDx=0;entryDy=0;entryPerimeter=0;" parent="1" source="ruzndFcOTA-KVxLO2v4l-120" target="ruzndFcOTA-KVxLO2v4l-125" edge="1">
                    <mxGeometry relative="1" as="geometry">
                        <mxPoint x="414" y="550" as="sourcePoint"/>
                        <mxPoint x="503" y="326" as="targetPoint"/>
                    </mxGeometry>
                </mxCell>
                <mxCell id="ruzndFcOTA-KVxLO2v4l-125" value="" style="fillColor=#3F51B5;aspect=fixed;sketch=0;pointerEvents=1;shadow=0;dashed=0;html=1;strokeColor=none;labelPosition=center;verticalLabelPosition=bottom;outlineConnect=0;verticalAlign=top;align=center;shape=mxgraph.openstack.neutron_floatingip;" parent="1" vertex="1">
                    <mxGeometry x="398" y="480" width="30" height="30" as="geometry"/>
                </mxCell>
                <mxCell id="ruzndFcOTA-KVxLO2v4l-128" value="" style="html=1;verticalLabelPosition=bottom;align=center;labelBackgroundColor=#ffffff;verticalAlign=top;strokeWidth=2;strokeColor=#0080F0;shadow=0;dashed=0;shape=mxgraph.ios7.icons.cloud;" parent="1" vertex="1">
                    <mxGeometry x="460" y="220" width="132" height="70" as="geometry"/>
                </mxCell>
                <mxCell id="ruzndFcOTA-KVxLO2v4l-131" style="edgeStyle=orthogonalEdgeStyle;rounded=0;orthogonalLoop=1;jettySize=auto;html=1;entryX=0.522;entryY=1.023;entryDx=0;entryDy=0;entryPerimeter=0;" parent="1" source="ruzndFcOTA-KVxLO2v4l-125" target="ruzndFcOTA-KVxLO2v4l-128" edge="1">
                    <mxGeometry relative="1" as="geometry">
                        <Array as="points">
                            <mxPoint x="413" y="430"/>
                            <mxPoint x="500" y="430"/>
                            <mxPoint x="500" y="372"/>
                        </Array>
                    </mxGeometry>
                </mxCell>
                <mxCell id="3" value="CloudProject-RG" style="text;html=1;align=center;verticalAlign=middle;whiteSpace=wrap;rounded=0;" parent="1" vertex="1">
                    <mxGeometry x="50" y="460" width="105.75" height="30" as="geometry"/>
                </mxCell>
                <mxCell id="4" value="" style="image;sketch=0;aspect=fixed;html=1;points=[];align=center;fontSize=12;image=img/lib/mscae/ResourceGroup.svg;" parent="1" vertex="1">
                    <mxGeometry x="155.75" y="465" width="25" height="20" as="geometry"/>
                </mxCell>
                <mxCell id="5" value="" style="image;aspect=fixed;html=1;points=[];align=center;fontSize=12;image=img/lib/azure2/databases/Azure_Database_MySQL_Server.svg;" parent="1" vertex="1">
                    <mxGeometry x="230" y="798" width="48" height="64" as="geometry"/>
                </mxCell>
                <mxCell id="7" value="" style="image;aspect=fixed;html=1;points=[];align=center;fontSize=12;image=img/lib/azure2/networking/Private_Endpoint.svg;" parent="1" vertex="1">
                    <mxGeometry x="393.36" y="755" width="43.64" height="40" as="geometry"/>
                </mxCell>
                <mxCell id="SPWbmzDW1_FKITmlNhAC-7" style="edgeStyle=orthogonalEdgeStyle;rounded=0;orthogonalLoop=1;jettySize=auto;html=1;entryX=0.491;entryY=0.965;entryDx=0;entryDy=0;entryPerimeter=0;" parent="1" source="5" target="7" edge="1">
                    <mxGeometry relative="1" as="geometry">
                        <Array as="points">
                            <mxPoint x="415" y="827"/>
                        </Array>
                    </mxGeometry>
                </mxCell>
                <mxCell id="SPWbmzDW1_FKITmlNhAC-10" style="edgeStyle=orthogonalEdgeStyle;rounded=0;orthogonalLoop=1;jettySize=auto;html=1;entryX=0.491;entryY=0.115;entryDx=0;entryDy=0;entryPerimeter=0;strokeColor=#FF0800;exitX=0.512;exitY=1.05;exitDx=0;exitDy=0;exitPerimeter=0;" parent="1" source="ruzndFcOTA-KVxLO2v4l-93" target="7" edge="1">
                    <mxGeometry relative="1" as="geometry">
                        <Array as="points">
                            <mxPoint x="220" y="690"/>
                            <mxPoint x="390" y="690"/>
                            <mxPoint x="390" y="760"/>
                        </Array>
                    </mxGeometry>
                </mxCell>
                <mxCell id="SPWbmzDW1_FKITmlNhAC-11" style="edgeStyle=orthogonalEdgeStyle;rounded=0;orthogonalLoop=1;jettySize=auto;html=1;entryX=0.482;entryY=0.095;entryDx=0;entryDy=0;entryPerimeter=0;strokeColor=light-dark(#ff0000, #ededed);exitX=0.497;exitY=0.985;exitDx=0;exitDy=0;exitPerimeter=0;" parent="1" source="ruzndFcOTA-KVxLO2v4l-94" target="7" edge="1">
                    <mxGeometry relative="1" as="geometry">
                        <Array as="points">
                            <mxPoint x="603" y="690"/>
                            <mxPoint x="440" y="690"/>
                            <mxPoint x="440" y="759"/>
                        </Array>
                    </mxGeometry>
                </mxCell>
                <mxCell id="SPWbmzDW1_FKITmlNhAC-12" value="" style="image;aspect=fixed;html=1;points=[];align=center;fontSize=12;image=img/lib/azure2/networking/Network_Security_Groups.svg;" parent="1" vertex="1">
                    <mxGeometry x="704" y="505" width="32.95" height="40" as="geometry"/>
                </mxCell>
                <mxCell id="_gwS4kIbbSzZOkrvt3ig-7" value="France-Central" style="text;html=1;align=center;verticalAlign=middle;whiteSpace=wrap;rounded=0;" parent="1" vertex="1">
                    <mxGeometry x="36.9" y="435" width="115.5" height="30" as="geometry"/>
                </mxCell>
                <mxCell id="_gwS4kIbbSzZOkrvt3ig-8" value=":80" style="text;html=1;align=center;verticalAlign=middle;whiteSpace=wrap;rounded=0;" parent="1" vertex="1">
                    <mxGeometry x="400" y="600" width="60" height="30" as="geometry"/>
                </mxCell>
                <mxCell id="_gwS4kIbbSzZOkrvt3ig-9" value=":80" style="text;html=1;align=center;verticalAlign=middle;whiteSpace=wrap;rounded=0;" parent="1" vertex="1">
                    <mxGeometry x="398" y="435" width="60" height="30" as="geometry"/>
                </mxCell>
                <mxCell id="_gwS4kIbbSzZOkrvt3ig-10" value="BASTION" style="image;aspect=fixed;html=1;points=[];align=center;fontSize=12;image=img/lib/azure2/compute/Virtual_Machine.svg;" parent="1" vertex="1">
                    <mxGeometry x="704" y="976" width="69" height="64" as="geometry"/>
                </mxCell>
                <mxCell id="X9iaZYr10ixfWT7J93WZ-7" value="" style="image;html=1;image=img/lib/clip_art/computers/Laptop_128x128.png" parent="1" vertex="1">
                    <mxGeometry x="530" y="1089" width="80" height="80" as="geometry"/>
                </mxCell>
                <mxCell id="X9iaZYr10ixfWT7J93WZ-8" style="edgeStyle=orthogonalEdgeStyle;rounded=0;orthogonalLoop=1;jettySize=auto;html=1;entryX=0.536;entryY=1;entryDx=0;entryDy=0;entryPerimeter=0;" parent="1" source="X9iaZYr10ixfWT7J93WZ-7" target="_gwS4kIbbSzZOkrvt3ig-10" edge="1">
                    <mxGeometry relative="1" as="geometry"/>
                </mxCell>
                <mxCell id="9" style="edgeStyle=none;html=1;entryX=0.978;entryY=0.391;entryDx=0;entryDy=0;entryPerimeter=0;strokeColor=light-dark(#000000,#EDEDED);" parent="1" source="_gwS4kIbbSzZOkrvt3ig-10" target="ruzndFcOTA-KVxLO2v4l-94" edge="1">
                    <mxGeometry relative="1" as="geometry">
                        <Array as="points">
                            <mxPoint x="750" y="940"/>
                            <mxPoint x="750" y="760"/>
                            <mxPoint x="750" y="700"/>
                            <mxPoint x="750" y="645"/>
                        </Array>
                    </mxGeometry>
                </mxCell>
                <mxCell id="10" style="edgeStyle=none;html=1;entryX=-0.046;entryY=0.434;entryDx=0;entryDy=0;entryPerimeter=0;strokeColor=#000000;" parent="1" source="_gwS4kIbbSzZOkrvt3ig-10" target="ruzndFcOTA-KVxLO2v4l-93" edge="1">
                    <mxGeometry relative="1" as="geometry">
                        <Array as="points">
                            <mxPoint x="60" y="1010"/>
                            <mxPoint x="60" y="750"/>
                            <mxPoint x="60" y="648"/>
                        </Array>
                    </mxGeometry>
                </mxCell>
                <mxCell id="11" value="&lt;font style=&quot;font-size: 9px;&quot;&gt;Cloud-Project VSS&lt;/font&gt;" style="text;html=1;align=center;verticalAlign=middle;whiteSpace=wrap;rounded=0;" parent="1" vertex="1">
                    <mxGeometry x="628.2" y="705" width="85.8" height="30" as="geometry"/>
                </mxCell>
            </root>
        </mxGraphModel>
    </diagram>
</mxfile>